<?xml version="1.0" encoding="utf-8"?>
<!-- Generator: Adobe Illustrator 16.0.3, SVG Export Plug-In . SVG Version: 6.00 Build 0)  -->
<!DOCTYPE svg PUBLIC "-//W3C//DTD SVG 1.1//EN" "http://www.w3.org/Graphics/SVG/1.1/DTD/svg11.dtd">
<svg version="1.1" xmlns="http://www.w3.org/2000/svg" xmlns:xlink="http://www.w3.org/1999/xlink" x="0px" y="0px" width="500px"
	 height="500px" viewBox="0 0 500 500" enable-background="new 0 0 500 500" xml:space="preserve">
<g id="Ebene_3">
	<radialGradient id="SVGID_1_" cx="250" cy="250" r="250" gradientUnits="userSpaceOnUse">
		<stop  offset="0" style="stop-color:#B2B2B2"/>
		<stop  offset="0.5" style="stop-color:#DADADA"/>
		<stop  offset="1" style="stop-color:#B2B2B2"/>
	</radialGradient>
	<rect display="none" fill="url(#SVGID_1_)" width="500" height="500"/>
	<path fill="#00897B" d="M250,413.059V107.796c0,0,67.643,4.436,118.967,21.934c0,0-0.612,54.624-0.604,108.818
		c0.017,75.519-58.108,156.345-118.358,171.364 M394,109.926C331.882,88.729,254.021,82.77,250,82.77
		c-4.473,0-81.886,5.959-144,27.156c0,0,0.444,66.117,0.428,131.723C106.416,333.071,177.06,429.766,250,447.939
		c72.936-18.178,143.481-114.868,143.465-206.291C393.457,176.043,394,109.926,394,109.926"/>
	<polygon fill="#FFFFFF" points="367.5,327.5 246.038,432.333 248,89 371,116.5 	"/>
</g>
<g id="Ebene_2">
	<path fill="#00BFA5" d="M250,407.059V92.796c0,0,66.639,9.436,117.963,26.934c0,0,0.392,56.624,0.399,110.818
		c0.017,75.519-58.108,166.345-118.358,181.364 M394,101.926C331.882,80.729,254.021,69.77,250,69.77
		c-4.473,0-81.886,10.959-144,32.156c0,0,0.444,66.117,0.428,131.723C106.416,325.071,177.06,421.766,250,439.939
		c72.936-18.178,143.481-114.868,143.465-206.291C393.457,168.043,394,101.926,394,101.926"/>
</g>
<g id="Ebene_1">
	<path fill="#00BFA5" d="M340,241.667c0-49.64-40.292-89.951-90-89.999v18.364c7.473,10.804,13.342,22.766,17.21,35.616H250v18.01
		h21.078c0.803,5.869,1.423,11.871,1.423,18.009c0,6.136-0.62,12.042-1.423,18.017H250v18.002h17.21
		c-3.868,12.849-9.737,24.811-17.21,35.607v18.373C299.708,331.618,340,291.299,340,241.667z M319.69,223.658
		c1.415,5.781,2.292,11.783,2.292,18.009c0,6.224-0.877,12.218-2.292,18.017h-30.473c0.761-5.975,1.298-11.881,1.298-18.017
		c0-6.138-0.537-12.049-1.298-18.009H319.69z M312.306,205.648h-26.542c-2.901-11.25-7.033-22.01-12.471-32.015
		C289.886,179.279,303.625,190.797,312.306,205.648z M273.293,309.703c5.438-10.008,9.569-20.768,12.471-32.018h26.542
		C303.625,292.551,289.886,304.053,273.293,309.703z"/>
	<path fill="#FFFFFF" d="M250,331.666v-18.373c-7.473-10.797-13.342-22.759-17.21-35.607H250v-18.002h-21.078
		c-0.803-5.975-1.423-11.881-1.423-18.017c0-6.138,0.62-12.14,1.423-18.009H250v-18.01h-17.21
		c3.868-12.851,9.737-24.813,17.21-35.616v-18.364c-49.708,0.048-90,40.359-90,89.999C160,291.299,200.292,331.618,250,331.666z
		 M210.782,223.658c-0.761,5.96-1.298,11.871-1.298,18.009c0,6.136,0.537,12.042,1.298,18.017H180.31
		c-1.415-5.799-2.292-11.793-2.292-18.017c0-6.226,0.877-12.228,2.292-18.009H210.782z M226.707,173.634
		c-5.438,10.005-9.569,20.765-12.471,32.015h-26.542C196.375,190.797,210.114,179.279,226.707,173.634z M187.694,277.686h26.542
		c2.901,11.25,7.033,22.01,12.471,32.018C210.114,304.053,196.375,292.551,187.694,277.686z"/>
</g>
</svg>
